<mxfile host="65bd71144e" pages="2">
    <diagram id="C5RBs43oDa-KdzZeNtuy" name="Main">
        <mxGraphModel dx="812" dy="1190" grid="1" gridSize="10" guides="1" tooltips="1" connect="1" arrows="1" fold="1" page="1" pageScale="1" pageWidth="827" pageHeight="1169" background="none" math="0" shadow="0">
            <root>
                <mxCell id="WIyWlLk6GJQsqaUBKTNV-0"/>
                <mxCell id="WIyWlLk6GJQsqaUBKTNV-1" parent="WIyWlLk6GJQsqaUBKTNV-0"/>
                <mxCell id="WIyWlLk6GJQsqaUBKTNV-2" value="" style="rounded=0;html=1;jettySize=auto;orthogonalLoop=1;fontSize=11;endArrow=block;endFill=0;endSize=8;strokeWidth=1;shadow=0;labelBackgroundColor=none;edgeStyle=orthogonalEdgeStyle;entryX=0.5;entryY=0;entryDx=0;entryDy=0;" parent="WIyWlLk6GJQsqaUBKTNV-1" source="WIyWlLk6GJQsqaUBKTNV-3" target="fMeVk2godiWAT-2JcNMw-3" edge="1">
                    <mxGeometry relative="1" as="geometry"/>
                </mxCell>
                <mxCell id="WIyWlLk6GJQsqaUBKTNV-3" value="Start" style="rounded=1;whiteSpace=wrap;html=1;fontSize=12;glass=0;strokeWidth=1;shadow=0;" parent="WIyWlLk6GJQsqaUBKTNV-1" vertex="1">
                    <mxGeometry x="120" y="40" width="120" height="40" as="geometry"/>
                </mxCell>
                <mxCell id="WIyWlLk6GJQsqaUBKTNV-4" value="" style="rounded=0;html=1;jettySize=auto;orthogonalLoop=1;fontSize=11;endArrow=block;endFill=0;endSize=8;strokeWidth=1;shadow=0;labelBackgroundColor=none;edgeStyle=orthogonalEdgeStyle;entryX=0.5;entryY=0;entryDx=0;entryDy=0;" parent="WIyWlLk6GJQsqaUBKTNV-1" source="WIyWlLk6GJQsqaUBKTNV-6" target="fMeVk2godiWAT-2JcNMw-4" edge="1">
                    <mxGeometry x="-0.4634" y="10" relative="1" as="geometry">
                        <mxPoint as="offset"/>
                    </mxGeometry>
                </mxCell>
                <mxCell id="WIyWlLk6GJQsqaUBKTNV-5" value="No" style="edgeStyle=orthogonalEdgeStyle;rounded=0;html=1;jettySize=auto;orthogonalLoop=1;fontSize=11;endArrow=block;endFill=0;endSize=8;strokeWidth=1;shadow=0;labelBackgroundColor=none;exitX=1;exitY=0.5;exitDx=0;exitDy=0;" parent="WIyWlLk6GJQsqaUBKTNV-1" source="WIyWlLk6GJQsqaUBKTNV-6" edge="1">
                    <mxGeometry x="0.0595" y="20" relative="1" as="geometry">
                        <mxPoint as="offset"/>
                        <mxPoint x="240" y="141" as="targetPoint"/>
                        <Array as="points">
                            <mxPoint x="270" y="239"/>
                            <mxPoint x="270" y="141"/>
                        </Array>
                    </mxGeometry>
                </mxCell>
                <mxCell id="WIyWlLk6GJQsqaUBKTNV-6" value="Found peers?" style="rhombus;whiteSpace=wrap;html=1;shadow=0;fontFamily=Helvetica;fontSize=12;align=center;strokeWidth=1;spacing=6;spacingTop=-4;" parent="WIyWlLk6GJQsqaUBKTNV-1" vertex="1">
                    <mxGeometry x="130" y="199" width="100" height="80" as="geometry"/>
                </mxCell>
                <mxCell id="WIyWlLk6GJQsqaUBKTNV-8" value="Yes" style="rounded=0;html=1;jettySize=auto;orthogonalLoop=1;fontSize=11;endArrow=block;endFill=0;endSize=8;strokeWidth=1;shadow=0;labelBackgroundColor=none;edgeStyle=orthogonalEdgeStyle;entryX=0;entryY=0.5;entryDx=0;entryDy=0;exitX=0.5;exitY=1;exitDx=0;exitDy=0;" parent="WIyWlLk6GJQsqaUBKTNV-1" source="WIyWlLk6GJQsqaUBKTNV-10" target="WIyWlLk6GJQsqaUBKTNV-10" edge="1">
                    <mxGeometry x="0.3333" y="20" relative="1" as="geometry">
                        <mxPoint as="offset"/>
                        <Array as="points">
                            <mxPoint x="180" y="709"/>
                            <mxPoint x="100" y="709"/>
                            <mxPoint x="100" y="660"/>
                        </Array>
                    </mxGeometry>
                </mxCell>
                <mxCell id="WIyWlLk6GJQsqaUBKTNV-9" value="No" style="edgeStyle=orthogonalEdgeStyle;rounded=0;html=1;jettySize=auto;orthogonalLoop=1;fontSize=11;endArrow=block;endFill=0;endSize=8;strokeWidth=1;shadow=0;labelBackgroundColor=none;entryX=0;entryY=0.5;entryDx=0;entryDy=0;" parent="WIyWlLk6GJQsqaUBKTNV-1" source="WIyWlLk6GJQsqaUBKTNV-10" target="fMeVk2godiWAT-2JcNMw-15" edge="1">
                    <mxGeometry y="10" relative="1" as="geometry">
                        <mxPoint as="offset"/>
                        <mxPoint x="240" y="646.5" as="targetPoint"/>
                    </mxGeometry>
                </mxCell>
                <mxCell id="WIyWlLk6GJQsqaUBKTNV-10" value="Is node keeping up?" style="rhombus;whiteSpace=wrap;html=1;shadow=0;fontFamily=Helvetica;fontSize=12;align=center;strokeWidth=1;spacing=6;spacingTop=-4;" parent="WIyWlLk6GJQsqaUBKTNV-1" vertex="1">
                    <mxGeometry x="130" y="619" width="100" height="81" as="geometry"/>
                </mxCell>
                <mxCell id="WIyWlLk6GJQsqaUBKTNV-11" value="Subscribe latest finalized slot" style="rounded=1;whiteSpace=wrap;html=1;fontSize=12;glass=0;strokeWidth=1;shadow=0;" parent="WIyWlLk6GJQsqaUBKTNV-1" vertex="1">
                    <mxGeometry x="200" y="531" width="120" height="41" as="geometry"/>
                </mxCell>
                <mxCell id="fMeVk2godiWAT-2JcNMw-2" value="" style="rounded=0;html=1;jettySize=auto;orthogonalLoop=1;fontSize=11;endArrow=block;endFill=0;endSize=8;strokeWidth=1;shadow=0;labelBackgroundColor=none;edgeStyle=orthogonalEdgeStyle;entryX=0.5;entryY=0;entryDx=0;entryDy=0;exitX=0.5;exitY=1;exitDx=0;exitDy=0;" parent="WIyWlLk6GJQsqaUBKTNV-1" source="fMeVk2godiWAT-2JcNMw-3" target="WIyWlLk6GJQsqaUBKTNV-6" edge="1">
                    <mxGeometry relative="1" as="geometry">
                        <mxPoint x="199" y="140" as="targetPoint"/>
                        <Array as="points"/>
                    </mxGeometry>
                </mxCell>
                <mxCell id="fMeVk2godiWAT-2JcNMw-3" value="Discover peers to track" style="rounded=1;whiteSpace=wrap;html=1;fontSize=12;glass=0;strokeWidth=1;shadow=0;" parent="WIyWlLk6GJQsqaUBKTNV-1" vertex="1">
                    <mxGeometry x="120" y="121" width="120" height="40" as="geometry"/>
                </mxCell>
                <mxCell id="fMeVk2godiWAT-2JcNMw-4" value="Track peers state" style="rounded=1;whiteSpace=wrap;html=1;fontSize=12;glass=0;strokeWidth=1;shadow=0;" parent="WIyWlLk6GJQsqaUBKTNV-1" vertex="1">
                    <mxGeometry x="40" y="333" width="120" height="40" as="geometry"/>
                </mxCell>
                <mxCell id="fMeVk2godiWAT-2JcNMw-5" value="Track node state" style="rounded=1;whiteSpace=wrap;html=1;fontSize=12;glass=0;strokeWidth=1;shadow=0;" parent="WIyWlLk6GJQsqaUBKTNV-1" vertex="1">
                    <mxGeometry x="200" y="333" width="120" height="40" as="geometry"/>
                </mxCell>
                <mxCell id="fMeVk2godiWAT-2JcNMw-6" value="Yes" style="rounded=0;html=1;jettySize=auto;orthogonalLoop=1;fontSize=11;endArrow=block;endFill=0;endSize=8;strokeWidth=1;shadow=0;labelBackgroundColor=none;edgeStyle=orthogonalEdgeStyle;exitX=0.5;exitY=1;exitDx=0;exitDy=0;" parent="WIyWlLk6GJQsqaUBKTNV-1" source="WIyWlLk6GJQsqaUBKTNV-6" target="fMeVk2godiWAT-2JcNMw-5" edge="1">
                    <mxGeometry x="-0.4634" y="10" relative="1" as="geometry">
                        <mxPoint as="offset"/>
                        <mxPoint x="190" y="289" as="sourcePoint"/>
                        <mxPoint x="110" y="330" as="targetPoint"/>
                    </mxGeometry>
                </mxCell>
                <mxCell id="fMeVk2godiWAT-2JcNMw-8" value="Yes" style="rounded=0;html=1;jettySize=auto;orthogonalLoop=1;fontSize=11;endArrow=block;endFill=0;endSize=8;strokeWidth=1;shadow=0;labelBackgroundColor=none;edgeStyle=orthogonalEdgeStyle;entryX=0.5;entryY=0;entryDx=0;entryDy=0;" parent="WIyWlLk6GJQsqaUBKTNV-1" source="fMeVk2godiWAT-2JcNMw-10" target="WIyWlLk6GJQsqaUBKTNV-11" edge="1">
                    <mxGeometry x="-0.05" y="10" relative="1" as="geometry">
                        <mxPoint as="offset"/>
                        <mxPoint x="260" y="540" as="targetPoint"/>
                        <Array as="points"/>
                    </mxGeometry>
                </mxCell>
                <mxCell id="fMeVk2godiWAT-2JcNMw-9" value="No" style="edgeStyle=orthogonalEdgeStyle;rounded=0;html=1;jettySize=auto;orthogonalLoop=1;fontSize=11;endArrow=block;endFill=0;endSize=8;strokeWidth=1;shadow=0;labelBackgroundColor=none;entryX=0;entryY=0.5;entryDx=0;entryDy=0;" parent="WIyWlLk6GJQsqaUBKTNV-1" source="fMeVk2godiWAT-2JcNMw-10" target="fMeVk2godiWAT-2JcNMw-13" edge="1">
                    <mxGeometry y="10" relative="1" as="geometry">
                        <mxPoint as="offset"/>
                        <mxPoint x="360" y="441" as="targetPoint"/>
                    </mxGeometry>
                </mxCell>
                <mxCell id="fMeVk2godiWAT-2JcNMw-10" value="Can RPC/WS?" style="rhombus;whiteSpace=wrap;html=1;shadow=0;fontFamily=Helvetica;fontSize=12;align=center;strokeWidth=1;spacing=6;spacingTop=-4;" parent="WIyWlLk6GJQsqaUBKTNV-1" vertex="1">
                    <mxGeometry x="210" y="410" width="100" height="81" as="geometry"/>
                </mxCell>
                <mxCell id="fMeVk2godiWAT-2JcNMw-11" value="Yes" style="rounded=0;html=1;jettySize=auto;orthogonalLoop=1;fontSize=11;endArrow=block;endFill=0;endSize=8;strokeWidth=1;shadow=0;labelBackgroundColor=none;edgeStyle=orthogonalEdgeStyle;exitX=0.5;exitY=1;exitDx=0;exitDy=0;entryX=0.5;entryY=0;entryDx=0;entryDy=0;" parent="WIyWlLk6GJQsqaUBKTNV-1" source="fMeVk2godiWAT-2JcNMw-13" target="fMeVk2godiWAT-2JcNMw-15" edge="1">
                    <mxGeometry x="0.3333" y="20" relative="1" as="geometry">
                        <mxPoint as="offset"/>
                        <mxPoint x="380" y="540" as="targetPoint"/>
                    </mxGeometry>
                </mxCell>
                <mxCell id="fMeVk2godiWAT-2JcNMw-12" value="No" style="edgeStyle=orthogonalEdgeStyle;rounded=0;html=1;jettySize=auto;orthogonalLoop=1;fontSize=11;endArrow=block;endFill=0;endSize=8;strokeWidth=1;shadow=0;labelBackgroundColor=none;entryX=0.5;entryY=0;entryDx=0;entryDy=0;exitX=0.5;exitY=0;exitDx=0;exitDy=0;" parent="WIyWlLk6GJQsqaUBKTNV-1" source="fMeVk2godiWAT-2JcNMw-13" target="fMeVk2godiWAT-2JcNMw-10" edge="1">
                    <mxGeometry y="10" relative="1" as="geometry">
                        <mxPoint as="offset"/>
                        <mxPoint x="510" y="440.5" as="targetPoint"/>
                        <Array as="points">
                            <mxPoint x="450" y="390"/>
                            <mxPoint x="260" y="390"/>
                        </Array>
                    </mxGeometry>
                </mxCell>
                <mxCell id="fMeVk2godiWAT-2JcNMw-13" value="Is startup delay crossed?" style="rhombus;whiteSpace=wrap;html=1;shadow=0;fontFamily=Helvetica;fontSize=12;align=center;strokeWidth=1;spacing=6;spacingTop=-4;" parent="WIyWlLk6GJQsqaUBKTNV-1" vertex="1">
                    <mxGeometry x="400" y="410" width="100" height="81" as="geometry"/>
                </mxCell>
                <mxCell id="fMeVk2godiWAT-2JcNMw-14" value="" style="rounded=0;html=1;jettySize=auto;orthogonalLoop=1;fontSize=11;endArrow=block;endFill=0;endSize=8;strokeWidth=1;shadow=0;labelBackgroundColor=none;edgeStyle=orthogonalEdgeStyle;exitX=0.5;exitY=1;exitDx=0;exitDy=0;entryX=0.5;entryY=0;entryDx=0;entryDy=0;" parent="WIyWlLk6GJQsqaUBKTNV-1" source="fMeVk2godiWAT-2JcNMw-5" target="fMeVk2godiWAT-2JcNMw-10" edge="1">
                    <mxGeometry x="0.3333" y="20" relative="1" as="geometry">
                        <mxPoint as="offset"/>
                        <mxPoint x="270" y="550" as="targetPoint"/>
                        <mxPoint x="270" y="491" as="sourcePoint"/>
                    </mxGeometry>
                </mxCell>
                <mxCell id="fMeVk2godiWAT-2JcNMw-15" value="&lt;b&gt;Restart&lt;/b&gt;" style="rounded=1;whiteSpace=wrap;html=1;fontSize=12;glass=0;strokeWidth=1;shadow=0;fillColor=#e3c800;fontColor=#000000;strokeColor=#B09500;" parent="WIyWlLk6GJQsqaUBKTNV-1" vertex="1">
                    <mxGeometry x="390" y="639" width="120" height="41" as="geometry"/>
                </mxCell>
                <mxCell id="fMeVk2godiWAT-2JcNMw-19" style="edgeStyle=orthogonalEdgeStyle;rounded=0;orthogonalLoop=1;jettySize=auto;html=1;exitX=0.5;exitY=1;exitDx=0;exitDy=0;entryX=0.5;entryY=0;entryDx=0;entryDy=0;endSize=8;endArrow=block;endFill=0;" parent="WIyWlLk6GJQsqaUBKTNV-1" source="fMeVk2godiWAT-2JcNMw-16" target="WIyWlLk6GJQsqaUBKTNV-10" edge="1">
                    <mxGeometry relative="1" as="geometry">
                        <Array as="points">
                            <mxPoint x="100" y="590"/>
                            <mxPoint x="180" y="590"/>
                        </Array>
                    </mxGeometry>
                </mxCell>
                <mxCell id="fMeVk2godiWAT-2JcNMw-16" value="Subscribe latest finalized slot" style="rounded=1;whiteSpace=wrap;html=1;fontSize=12;glass=0;strokeWidth=1;shadow=0;" parent="WIyWlLk6GJQsqaUBKTNV-1" vertex="1">
                    <mxGeometry x="40" y="531" width="120" height="41" as="geometry"/>
                </mxCell>
                <mxCell id="fMeVk2godiWAT-2JcNMw-17" value="" style="rounded=0;html=1;jettySize=auto;orthogonalLoop=1;fontSize=11;endArrow=block;endFill=0;endSize=8;strokeWidth=1;shadow=0;labelBackgroundColor=none;edgeStyle=orthogonalEdgeStyle;exitX=0.5;exitY=1;exitDx=0;exitDy=0;" parent="WIyWlLk6GJQsqaUBKTNV-1" source="fMeVk2godiWAT-2JcNMw-4" edge="1">
                    <mxGeometry relative="1" as="geometry">
                        <mxPoint x="100" y="530" as="targetPoint"/>
                        <mxPoint x="190" y="131" as="sourcePoint"/>
                        <Array as="points">
                            <mxPoint x="100" y="460"/>
                            <mxPoint x="100" y="460"/>
                        </Array>
                    </mxGeometry>
                </mxCell>
                <mxCell id="fMeVk2godiWAT-2JcNMw-23" value="&lt;i&gt;Keep trying for all peers that&lt;br&gt;fail to connect/subscribe&lt;/i&gt;" style="edgeLabel;html=1;align=center;verticalAlign=middle;resizable=0;points=[];" parent="fMeVk2godiWAT-2JcNMw-17" vertex="1" connectable="0">
                    <mxGeometry x="-0.1507" relative="1" as="geometry">
                        <mxPoint as="offset"/>
                    </mxGeometry>
                </mxCell>
                <mxCell id="fMeVk2godiWAT-2JcNMw-20" style="edgeStyle=orthogonalEdgeStyle;rounded=0;orthogonalLoop=1;jettySize=auto;html=1;exitX=0.5;exitY=1;exitDx=0;exitDy=0;entryX=0.5;entryY=0;entryDx=0;entryDy=0;endSize=8;endArrow=block;endFill=0;" parent="WIyWlLk6GJQsqaUBKTNV-1" source="WIyWlLk6GJQsqaUBKTNV-11" target="WIyWlLk6GJQsqaUBKTNV-10" edge="1">
                    <mxGeometry relative="1" as="geometry">
                        <mxPoint x="110" y="582" as="sourcePoint"/>
                        <mxPoint x="210" y="620" as="targetPoint"/>
                        <Array as="points">
                            <mxPoint x="260" y="590"/>
                            <mxPoint x="180" y="590"/>
                        </Array>
                    </mxGeometry>
                </mxCell>
                <mxCell id="fMeVk2godiWAT-2JcNMw-21" value="" style="endArrow=block;html=1;rounded=0;exitX=0.5;exitY=1;exitDx=0;exitDy=0;entryX=1;entryY=0.5;entryDx=0;entryDy=0;endFill=0;startSize=6;endSize=8;" parent="WIyWlLk6GJQsqaUBKTNV-1" source="fMeVk2godiWAT-2JcNMw-15" target="fMeVk2godiWAT-2JcNMw-5" edge="1">
                    <mxGeometry width="50" height="50" relative="1" as="geometry">
                        <mxPoint x="350" y="610" as="sourcePoint"/>
                        <mxPoint x="400" y="560" as="targetPoint"/>
                        <Array as="points">
                            <mxPoint x="450" y="710"/>
                            <mxPoint x="540" y="710"/>
                            <mxPoint x="540" y="353"/>
                        </Array>
                    </mxGeometry>
                </mxCell>
                <mxCell id="fMeVk2godiWAT-2JcNMw-22" value="&lt;i&gt;Reset startup delay&lt;/i&gt;" style="edgeLabel;html=1;align=center;verticalAlign=middle;resizable=0;points=[];" parent="fMeVk2godiWAT-2JcNMw-21" vertex="1" connectable="0">
                    <mxGeometry x="-0.1131" relative="1" as="geometry">
                        <mxPoint as="offset"/>
                    </mxGeometry>
                </mxCell>
            </root>
        </mxGraphModel>
    </diagram>
    <diagram name="Healthz" id="QwPcyN4C7zsSGXoC4Oey">
        <mxGraphModel dx="812" dy="1190" grid="1" gridSize="10" guides="1" tooltips="1" connect="1" arrows="1" fold="1" page="1" pageScale="1" pageWidth="827" pageHeight="1169" math="0" shadow="0">
            <root>
                <mxCell id="smcJy94zDKzggMPAzlKb-0"/>
                <mxCell id="smcJy94zDKzggMPAzlKb-1" parent="smcJy94zDKzggMPAzlKb-0"/>
                <mxCell id="smcJy94zDKzggMPAzlKb-3" value="Start" style="rounded=1;whiteSpace=wrap;html=1;fontSize=12;glass=0;strokeWidth=1;shadow=0;" parent="smcJy94zDKzggMPAzlKb-1" vertex="1">
                    <mxGeometry x="120" y="40" width="120" height="40" as="geometry"/>
                </mxCell>
                <mxCell id="smcJy94zDKzggMPAzlKb-4" value="" style="rounded=0;html=1;jettySize=auto;orthogonalLoop=1;fontSize=11;endArrow=block;endFill=0;endSize=8;strokeWidth=1;shadow=0;labelBackgroundColor=none;edgeStyle=orthogonalEdgeStyle;entryX=0.5;entryY=0;entryDx=0;entryDy=0;" parent="smcJy94zDKzggMPAzlKb-1" source="smcJy94zDKzggMPAzlKb-6" target="smcJy94zDKzggMPAzlKb-13" edge="1">
                    <mxGeometry x="-0.4634" y="10" relative="1" as="geometry">
                        <mxPoint as="offset"/>
                    </mxGeometry>
                </mxCell>
                <mxCell id="smcJy94zDKzggMPAzlKb-5" value="No" style="edgeStyle=orthogonalEdgeStyle;rounded=0;html=1;jettySize=auto;orthogonalLoop=1;fontSize=11;endArrow=block;endFill=0;endSize=8;strokeWidth=1;shadow=0;labelBackgroundColor=none;exitX=1;exitY=0.5;exitDx=0;exitDy=0;" parent="smcJy94zDKzggMPAzlKb-1" source="smcJy94zDKzggMPAzlKb-6" edge="1">
                    <mxGeometry x="0.0595" y="20" relative="1" as="geometry">
                        <mxPoint as="offset"/>
                        <mxPoint x="240" y="141" as="targetPoint"/>
                        <Array as="points">
                            <mxPoint x="270" y="239"/>
                            <mxPoint x="270" y="141"/>
                        </Array>
                    </mxGeometry>
                </mxCell>
                <mxCell id="smcJy94zDKzggMPAzlKb-6" value="Found peers?" style="rhombus;whiteSpace=wrap;html=1;shadow=0;fontFamily=Helvetica;fontSize=12;align=center;strokeWidth=1;spacing=6;spacingTop=-4;" parent="smcJy94zDKzggMPAzlKb-1" vertex="1">
                    <mxGeometry x="130" y="199" width="100" height="80" as="geometry"/>
                </mxCell>
                <mxCell id="smcJy94zDKzggMPAzlKb-7" value="Yes" style="rounded=0;html=1;jettySize=auto;orthogonalLoop=1;fontSize=11;endArrow=block;endFill=0;endSize=8;strokeWidth=1;shadow=0;labelBackgroundColor=none;edgeStyle=orthogonalEdgeStyle;entryX=0;entryY=0.5;entryDx=0;entryDy=0;exitX=0.5;exitY=1;exitDx=0;exitDy=0;" parent="smcJy94zDKzggMPAzlKb-1" source="smcJy94zDKzggMPAzlKb-9" target="smcJy94zDKzggMPAzlKb-9" edge="1">
                    <mxGeometry x="-0.79" y="-20" relative="1" as="geometry">
                        <mxPoint x="20" y="20" as="offset"/>
                        <Array as="points">
                            <mxPoint x="180" y="720"/>
                            <mxPoint x="100" y="720"/>
                            <mxPoint x="100" y="660"/>
                        </Array>
                    </mxGeometry>
                </mxCell>
                <mxCell id="smcJy94zDKzggMPAzlKb-8" value="No" style="edgeStyle=orthogonalEdgeStyle;rounded=0;html=1;jettySize=auto;orthogonalLoop=1;fontSize=11;endArrow=block;endFill=0;endSize=8;strokeWidth=1;shadow=0;labelBackgroundColor=none;entryX=0;entryY=0.5;entryDx=0;entryDy=0;" parent="smcJy94zDKzggMPAzlKb-1" source="smcJy94zDKzggMPAzlKb-9" target="smcJy94zDKzggMPAzlKb-23" edge="1">
                    <mxGeometry x="-0.0698" y="20" relative="1" as="geometry">
                        <mxPoint y="1" as="offset"/>
                        <mxPoint x="240" y="646.5" as="targetPoint"/>
                    </mxGeometry>
                </mxCell>
                <mxCell id="smcJy94zDKzggMPAzlKb-9" value="Is node keeping up?" style="rhombus;whiteSpace=wrap;html=1;shadow=0;fontFamily=Helvetica;fontSize=12;align=center;strokeWidth=1;spacing=6;spacingTop=-4;" parent="smcJy94zDKzggMPAzlKb-1" vertex="1">
                    <mxGeometry x="130" y="619" width="100" height="81" as="geometry"/>
                </mxCell>
                <mxCell id="smcJy94zDKzggMPAzlKb-10" value="Subscribe latest finalized slot" style="rounded=1;whiteSpace=wrap;html=1;fontSize=12;glass=0;strokeWidth=1;shadow=0;" parent="smcJy94zDKzggMPAzlKb-1" vertex="1">
                    <mxGeometry x="200" y="531" width="120" height="41" as="geometry"/>
                </mxCell>
                <mxCell id="smcJy94zDKzggMPAzlKb-11" value="" style="rounded=0;html=1;jettySize=auto;orthogonalLoop=1;fontSize=11;endArrow=block;endFill=0;endSize=8;strokeWidth=1;shadow=0;labelBackgroundColor=none;edgeStyle=orthogonalEdgeStyle;entryX=0.5;entryY=0;entryDx=0;entryDy=0;exitX=0.5;exitY=1;exitDx=0;exitDy=0;" parent="smcJy94zDKzggMPAzlKb-1" source="smcJy94zDKzggMPAzlKb-12" target="smcJy94zDKzggMPAzlKb-6" edge="1">
                    <mxGeometry relative="1" as="geometry">
                        <mxPoint x="199" y="140" as="targetPoint"/>
                        <Array as="points"/>
                    </mxGeometry>
                </mxCell>
                <mxCell id="smcJy94zDKzggMPAzlKb-12" value="Discover peers to track" style="rounded=1;whiteSpace=wrap;html=1;fontSize=12;glass=0;strokeWidth=1;shadow=0;" parent="smcJy94zDKzggMPAzlKb-1" vertex="1">
                    <mxGeometry x="120" y="121" width="120" height="40" as="geometry"/>
                </mxCell>
                <mxCell id="smcJy94zDKzggMPAzlKb-13" value="Track peers state" style="rounded=1;whiteSpace=wrap;html=1;fontSize=12;glass=0;strokeWidth=1;shadow=0;" parent="smcJy94zDKzggMPAzlKb-1" vertex="1">
                    <mxGeometry x="40" y="333" width="120" height="40" as="geometry"/>
                </mxCell>
                <mxCell id="smcJy94zDKzggMPAzlKb-14" value="Track node state" style="rounded=1;whiteSpace=wrap;html=1;fontSize=12;glass=0;strokeWidth=1;shadow=0;" parent="smcJy94zDKzggMPAzlKb-1" vertex="1">
                    <mxGeometry x="200" y="333" width="120" height="40" as="geometry"/>
                </mxCell>
                <mxCell id="smcJy94zDKzggMPAzlKb-15" value="Yes" style="rounded=0;html=1;jettySize=auto;orthogonalLoop=1;fontSize=11;endArrow=block;endFill=0;endSize=8;strokeWidth=1;shadow=0;labelBackgroundColor=none;edgeStyle=orthogonalEdgeStyle;exitX=0.5;exitY=1;exitDx=0;exitDy=0;" parent="smcJy94zDKzggMPAzlKb-1" source="smcJy94zDKzggMPAzlKb-6" target="smcJy94zDKzggMPAzlKb-14" edge="1">
                    <mxGeometry x="-0.2985" y="16" relative="1" as="geometry">
                        <mxPoint as="offset"/>
                        <mxPoint x="190" y="289" as="sourcePoint"/>
                        <mxPoint x="110" y="330" as="targetPoint"/>
                    </mxGeometry>
                </mxCell>
                <mxCell id="smcJy94zDKzggMPAzlKb-16" value="Yes" style="rounded=0;html=1;jettySize=auto;orthogonalLoop=1;fontSize=11;endArrow=block;endFill=0;endSize=8;strokeWidth=1;shadow=0;labelBackgroundColor=none;edgeStyle=orthogonalEdgeStyle;entryX=0.5;entryY=0;entryDx=0;entryDy=0;" parent="smcJy94zDKzggMPAzlKb-1" source="smcJy94zDKzggMPAzlKb-18" target="smcJy94zDKzggMPAzlKb-10" edge="1">
                    <mxGeometry x="-0.05" y="20" relative="1" as="geometry">
                        <mxPoint as="offset"/>
                        <mxPoint x="260" y="540" as="targetPoint"/>
                        <Array as="points"/>
                    </mxGeometry>
                </mxCell>
                <mxCell id="smcJy94zDKzggMPAzlKb-18" value="Can RPC/WS?" style="rhombus;whiteSpace=wrap;html=1;shadow=0;fontFamily=Helvetica;fontSize=12;align=center;strokeWidth=1;spacing=6;spacingTop=-4;" parent="smcJy94zDKzggMPAzlKb-1" vertex="1">
                    <mxGeometry x="210" y="410" width="100" height="81" as="geometry"/>
                </mxCell>
                <mxCell id="smcJy94zDKzggMPAzlKb-22" value="" style="rounded=0;html=1;jettySize=auto;orthogonalLoop=1;fontSize=11;endArrow=block;endFill=0;endSize=8;strokeWidth=1;shadow=0;labelBackgroundColor=none;edgeStyle=orthogonalEdgeStyle;exitX=0.5;exitY=1;exitDx=0;exitDy=0;entryX=0.5;entryY=0;entryDx=0;entryDy=0;" parent="smcJy94zDKzggMPAzlKb-1" source="smcJy94zDKzggMPAzlKb-14" target="smcJy94zDKzggMPAzlKb-18" edge="1">
                    <mxGeometry x="0.3333" y="20" relative="1" as="geometry">
                        <mxPoint as="offset"/>
                        <mxPoint x="270" y="550" as="targetPoint"/>
                        <mxPoint x="270" y="491" as="sourcePoint"/>
                    </mxGeometry>
                </mxCell>
                <mxCell id="smcJy94zDKzggMPAzlKb-23" value="&lt;b&gt;Unhealthy&lt;/b&gt;" style="rounded=1;whiteSpace=wrap;html=1;fontSize=12;glass=0;strokeWidth=1;shadow=0;fillColor=#e51400;fontColor=#ffffff;strokeColor=#B20000;" parent="smcJy94zDKzggMPAzlKb-1" vertex="1">
                    <mxGeometry x="359" y="639" width="120" height="41" as="geometry"/>
                </mxCell>
                <mxCell id="smcJy94zDKzggMPAzlKb-24" style="edgeStyle=orthogonalEdgeStyle;rounded=0;orthogonalLoop=1;jettySize=auto;html=1;exitX=0.5;exitY=1;exitDx=0;exitDy=0;entryX=0.5;entryY=0;entryDx=0;entryDy=0;endSize=8;endArrow=block;endFill=0;" parent="smcJy94zDKzggMPAzlKb-1" source="smcJy94zDKzggMPAzlKb-25" target="smcJy94zDKzggMPAzlKb-9" edge="1">
                    <mxGeometry relative="1" as="geometry">
                        <Array as="points">
                            <mxPoint x="100" y="590"/>
                            <mxPoint x="180" y="590"/>
                        </Array>
                    </mxGeometry>
                </mxCell>
                <mxCell id="smcJy94zDKzggMPAzlKb-25" value="Subscribe latest finalized slot" style="rounded=1;whiteSpace=wrap;html=1;fontSize=12;glass=0;strokeWidth=1;shadow=0;" parent="smcJy94zDKzggMPAzlKb-1" vertex="1">
                    <mxGeometry x="40" y="531" width="120" height="41" as="geometry"/>
                </mxCell>
                <mxCell id="smcJy94zDKzggMPAzlKb-26" value="" style="rounded=0;html=1;jettySize=auto;orthogonalLoop=1;fontSize=11;endArrow=block;endFill=0;endSize=8;strokeWidth=1;shadow=0;labelBackgroundColor=none;edgeStyle=orthogonalEdgeStyle;exitX=0.5;exitY=1;exitDx=0;exitDy=0;" parent="smcJy94zDKzggMPAzlKb-1" source="smcJy94zDKzggMPAzlKb-13" edge="1">
                    <mxGeometry relative="1" as="geometry">
                        <mxPoint x="100" y="530" as="targetPoint"/>
                        <mxPoint x="190" y="131" as="sourcePoint"/>
                        <Array as="points">
                            <mxPoint x="100" y="460"/>
                            <mxPoint x="100" y="460"/>
                        </Array>
                    </mxGeometry>
                </mxCell>
                <mxCell id="smcJy94zDKzggMPAzlKb-27" value="&lt;i&gt;Keep trying for all peers that&lt;br&gt;fail to connect/subscribe&lt;/i&gt;" style="edgeLabel;html=1;align=center;verticalAlign=middle;resizable=0;points=[];" parent="smcJy94zDKzggMPAzlKb-26" vertex="1" connectable="0">
                    <mxGeometry x="-0.1507" relative="1" as="geometry">
                        <mxPoint as="offset"/>
                    </mxGeometry>
                </mxCell>
                <mxCell id="smcJy94zDKzggMPAzlKb-28" style="edgeStyle=orthogonalEdgeStyle;rounded=0;orthogonalLoop=1;jettySize=auto;html=1;exitX=0.5;exitY=1;exitDx=0;exitDy=0;entryX=0.5;entryY=0;entryDx=0;entryDy=0;endArrow=block;endFill=0;endSize=8;" parent="smcJy94zDKzggMPAzlKb-1" source="smcJy94zDKzggMPAzlKb-10" target="smcJy94zDKzggMPAzlKb-9" edge="1">
                    <mxGeometry relative="1" as="geometry">
                        <mxPoint x="110" y="582" as="sourcePoint"/>
                        <mxPoint x="210" y="620" as="targetPoint"/>
                        <Array as="points">
                            <mxPoint x="260" y="590"/>
                            <mxPoint x="180" y="590"/>
                        </Array>
                    </mxGeometry>
                </mxCell>
                <mxCell id="De73M-PmRHh5XfW3z1gS-0" value="&lt;b&gt;Healthy&lt;/b&gt;" style="rounded=1;whiteSpace=wrap;html=1;fontSize=12;glass=0;strokeWidth=1;shadow=0;fillColor=#008a00;fontColor=#ffffff;strokeColor=#005700;" parent="smcJy94zDKzggMPAzlKb-1" vertex="1">
                    <mxGeometry x="120" y="750" width="120" height="41" as="geometry"/>
                </mxCell>
                <mxCell id="_KCIgCdmwgNXbq61CXus-0" value="Eventually, the main loop will restart" style="shape=callout;whiteSpace=wrap;html=1;perimeter=calloutPerimeter;dashed=1;fillColor=#e3c800;fontColor=#000000;strokeColor=#B09500;opacity=70;" parent="smcJy94zDKzggMPAzlKb-1" vertex="1">
                    <mxGeometry x="401" y="572" width="120" height="80" as="geometry"/>
                </mxCell>
                <mxCell id="De73M-PmRHh5XfW3z1gS-2" value="" style="endArrow=block;html=1;exitX=0.5;exitY=1;exitDx=0;exitDy=0;entryX=0.5;entryY=0;entryDx=0;entryDy=0;endFill=0;rounded=0;endSize=8;" parent="smcJy94zDKzggMPAzlKb-1" source="smcJy94zDKzggMPAzlKb-9" target="De73M-PmRHh5XfW3z1gS-0" edge="1">
                    <mxGeometry width="50" height="50" relative="1" as="geometry">
                        <mxPoint x="390" y="630" as="sourcePoint"/>
                        <mxPoint x="440" y="580" as="targetPoint"/>
                    </mxGeometry>
                </mxCell>
                <mxCell id="_KCIgCdmwgNXbq61CXus-1" value="Serve &lt;b&gt;/healthz&lt;/b&gt; endpoint" style="rounded=1;whiteSpace=wrap;html=1;fontSize=12;glass=0;strokeWidth=1;shadow=0;" parent="smcJy94zDKzggMPAzlKb-1" vertex="1">
                    <mxGeometry x="400" y="120" width="120" height="41" as="geometry"/>
                </mxCell>
                <mxCell id="_KCIgCdmwgNXbq61CXus-2" value="" style="rounded=0;html=1;jettySize=auto;orthogonalLoop=1;fontSize=11;endArrow=block;endFill=0;endSize=8;strokeWidth=1;shadow=0;labelBackgroundColor=none;edgeStyle=orthogonalEdgeStyle;entryX=0.5;entryY=0;entryDx=0;entryDy=0;exitX=0.75;exitY=1;exitDx=0;exitDy=0;" parent="smcJy94zDKzggMPAzlKb-1" source="smcJy94zDKzggMPAzlKb-3" target="_KCIgCdmwgNXbq61CXus-1" edge="1">
                    <mxGeometry relative="1" as="geometry">
                        <mxPoint x="190" y="90" as="sourcePoint"/>
                        <mxPoint x="190" y="131" as="targetPoint"/>
                    </mxGeometry>
                </mxCell>
                <mxCell id="khTaqoJNU1CLjO2bZ_RS-0" value="" style="edgeStyle=orthogonalEdgeStyle;rounded=0;html=1;jettySize=auto;orthogonalLoop=1;fontSize=11;endArrow=block;endFill=0;endSize=8;strokeWidth=1;shadow=0;labelBackgroundColor=none;entryX=1;entryY=0;entryDx=0;entryDy=0;exitX=0.5;exitY=0;exitDx=0;exitDy=0;exitPerimeter=0;dashed=1;" parent="smcJy94zDKzggMPAzlKb-1" source="_KCIgCdmwgNXbq61CXus-0" target="smcJy94zDKzggMPAzlKb-18" edge="1">
                    <mxGeometry x="-0.0698" y="20" relative="1" as="geometry">
                        <mxPoint y="1" as="offset"/>
                        <mxPoint x="369" y="669.5" as="targetPoint"/>
                        <mxPoint x="240" y="669.5" as="sourcePoint"/>
                        <Array as="points">
                            <mxPoint x="461" y="410"/>
                            <mxPoint x="285" y="410"/>
                        </Array>
                    </mxGeometry>
                </mxCell>
                <mxCell id="smcJy94zDKzggMPAzlKb-17" value="No" style="edgeStyle=orthogonalEdgeStyle;rounded=0;html=1;jettySize=auto;orthogonalLoop=1;fontSize=11;endArrow=block;endFill=0;endSize=8;strokeWidth=1;shadow=0;labelBackgroundColor=none;entryX=0.25;entryY=0;entryDx=0;entryDy=0;" parent="smcJy94zDKzggMPAzlKb-1" source="smcJy94zDKzggMPAzlKb-18" target="smcJy94zDKzggMPAzlKb-23" edge="1">
                    <mxGeometry x="0.3345" y="-19" relative="1" as="geometry">
                        <mxPoint as="offset"/>
                        <mxPoint x="400" y="450.5" as="targetPoint"/>
                    </mxGeometry>
                </mxCell>
                <mxCell id="khTaqoJNU1CLjO2bZ_RS-2" value="&lt;b&gt;Unhealthy&lt;/b&gt;" style="rounded=1;whiteSpace=wrap;html=1;fontSize=12;glass=0;strokeWidth=1;shadow=0;fillColor=#e51400;fontColor=#ffffff;strokeColor=#B20000;" parent="smcJy94zDKzggMPAzlKb-1" vertex="1">
                    <mxGeometry x="400" y="199" width="120" height="41" as="geometry"/>
                </mxCell>
                <mxCell id="khTaqoJNU1CLjO2bZ_RS-4" value="" style="rounded=0;html=1;jettySize=auto;orthogonalLoop=1;fontSize=11;endArrow=block;endFill=0;endSize=8;strokeWidth=1;shadow=0;labelBackgroundColor=none;edgeStyle=orthogonalEdgeStyle;exitX=0.5;exitY=1;exitDx=0;exitDy=0;" parent="smcJy94zDKzggMPAzlKb-1" source="_KCIgCdmwgNXbq61CXus-1" edge="1">
                    <mxGeometry x="0.3333" y="20" relative="1" as="geometry">
                        <mxPoint as="offset"/>
                        <mxPoint x="460" y="200" as="targetPoint"/>
                        <mxPoint x="280" y="393" as="sourcePoint"/>
                    </mxGeometry>
                </mxCell>
                <mxCell id="khTaqoJNU1CLjO2bZ_RS-5" value="" style="rounded=0;html=1;jettySize=auto;orthogonalLoop=1;fontSize=11;endArrow=block;endFill=0;endSize=8;strokeWidth=1;shadow=0;labelBackgroundColor=none;edgeStyle=orthogonalEdgeStyle;exitX=0.5;exitY=1;exitDx=0;exitDy=0;" parent="smcJy94zDKzggMPAzlKb-1" source="smcJy94zDKzggMPAzlKb-3" edge="1">
                    <mxGeometry x="0.3333" y="20" relative="1" as="geometry">
                        <mxPoint as="offset"/>
                        <mxPoint x="180" y="120" as="targetPoint"/>
                        <mxPoint x="290" y="403" as="sourcePoint"/>
                    </mxGeometry>
                </mxCell>
            </root>
        </mxGraphModel>
    </diagram>
    <diagram name="Proxy" id="VicqML1sKqxDb5tDcEmM">
        <mxGraphModel dx="812" dy="1190" grid="1" gridSize="10" guides="1" tooltips="1" connect="1" arrows="1" fold="1" page="1" pageScale="1" pageWidth="827" pageHeight="1169" background="none" math="0" shadow="0">
            <root>
                <mxCell id="lGRME-GvFQ1eXHFbGVmC-0"/>
                <mxCell id="lGRME-GvFQ1eXHFbGVmC-1" parent="lGRME-GvFQ1eXHFbGVmC-0"/>
                <mxCell id="lGRME-GvFQ1eXHFbGVmC-2" value="Start" style="rounded=1;whiteSpace=wrap;html=1;fontSize=12;glass=0;strokeWidth=1;shadow=0;" parent="lGRME-GvFQ1eXHFbGVmC-1" vertex="1">
                    <mxGeometry x="139" y="40" width="120" height="40" as="geometry"/>
                </mxCell>
                <mxCell id="lGRME-GvFQ1eXHFbGVmC-34" value="No" style="edgeStyle=orthogonalEdgeStyle;rounded=0;html=1;jettySize=auto;orthogonalLoop=1;fontSize=11;endArrow=block;endFill=0;endSize=8;strokeWidth=1;shadow=0;labelBackgroundColor=none;entryX=0.5;entryY=1;entryDx=0;entryDy=0;dashed=1;exitX=1;exitY=0.5;exitDx=0;exitDy=0;" parent="lGRME-GvFQ1eXHFbGVmC-1" source="lGRME-GvFQ1eXHFbGVmC-35" edge="1" target="gx4ZkenyJZu-7thW2DIO-0">
                    <mxGeometry x="-0.0698" y="20" relative="1" as="geometry">
                        <mxPoint y="1" as="offset"/>
                        <mxPoint x="410" y="241" as="targetPoint"/>
                    </mxGeometry>
                </mxCell>
                <mxCell id="lGRME-GvFQ1eXHFbGVmC-35" value="Healthy?" style="rhombus;whiteSpace=wrap;html=1;shadow=0;fontFamily=Helvetica;fontSize=12;align=center;strokeWidth=1;spacing=6;spacingTop=-4;" parent="lGRME-GvFQ1eXHFbGVmC-1" vertex="1">
                    <mxGeometry x="160" y="200" width="100" height="81" as="geometry"/>
                </mxCell>
                <mxCell id="lGRME-GvFQ1eXHFbGVmC-36" value="" style="endArrow=block;html=1;exitX=0.5;exitY=1;exitDx=0;exitDy=0;entryX=0.417;entryY=0;entryDx=0;entryDy=0;endFill=0;rounded=0;endSize=8;entryPerimeter=0;" parent="lGRME-GvFQ1eXHFbGVmC-1" source="lGRME-GvFQ1eXHFbGVmC-35" edge="1" target="lGRME-GvFQ1eXHFbGVmC-38">
                    <mxGeometry width="50" height="50" relative="1" as="geometry">
                        <mxPoint x="370" y="211" as="sourcePoint"/>
                        <mxPoint x="160" y="331" as="targetPoint"/>
                    </mxGeometry>
                </mxCell>
                <mxCell id="4s8P52Bh_Eo5vHt_DdaS-0" value="Yes" style="edgeLabel;html=1;align=center;verticalAlign=middle;resizable=0;points=[];" vertex="1" connectable="0" parent="lGRME-GvFQ1eXHFbGVmC-36">
                    <mxGeometry x="-0.2499" y="1" relative="1" as="geometry">
                        <mxPoint x="19" as="offset"/>
                    </mxGeometry>
                </mxCell>
                <mxCell id="lGRME-GvFQ1eXHFbGVmC-37" value="Client" style="shape=umlActor;verticalLabelPosition=bottom;verticalAlign=top;html=1;outlineConnect=0;dashed=1;opacity=70;" parent="lGRME-GvFQ1eXHFbGVmC-1" vertex="1">
                    <mxGeometry x="480" y="120" width="30" height="60" as="geometry"/>
                </mxCell>
                <mxCell id="lGRME-GvFQ1eXHFbGVmC-38" value="RPC node&lt;br&gt;listening on localhost:18998-9&amp;nbsp;" style="shape=process;whiteSpace=wrap;html=1;backgroundOutline=1;dashed=1;opacity=70;" parent="lGRME-GvFQ1eXHFbGVmC-1" vertex="1">
                    <mxGeometry x="160" y="320" width="120" height="60" as="geometry"/>
                </mxCell>
                <mxCell id="gx4ZkenyJZu-7thW2DIO-0" value="Listen on RPC port" style="rounded=1;whiteSpace=wrap;html=1;fontSize=12;glass=0;strokeWidth=1;shadow=0;" parent="lGRME-GvFQ1eXHFbGVmC-1" vertex="1">
                    <mxGeometry x="240" y="120" width="120" height="41" as="geometry"/>
                </mxCell>
                <mxCell id="gx4ZkenyJZu-7thW2DIO-1" value="" style="rounded=0;html=1;jettySize=auto;orthogonalLoop=1;fontSize=11;endArrow=block;endFill=0;endSize=8;strokeWidth=1;shadow=0;labelBackgroundColor=none;edgeStyle=orthogonalEdgeStyle;entryX=0.5;entryY=0;entryDx=0;entryDy=0;exitX=0.5;exitY=1;exitDx=0;exitDy=0;" parent="lGRME-GvFQ1eXHFbGVmC-1" target="gx4ZkenyJZu-7thW2DIO-0" edge="1" source="lGRME-GvFQ1eXHFbGVmC-2">
                    <mxGeometry relative="1" as="geometry">
                        <mxPoint x="210" y="80" as="sourcePoint"/>
                        <mxPoint x="190" y="131" as="targetPoint"/>
                        <Array as="points">
                            <mxPoint x="199" y="100"/>
                            <mxPoint x="300" y="100"/>
                        </Array>
                    </mxGeometry>
                </mxCell>
                <mxCell id="4s8P52Bh_Eo5vHt_DdaS-1" value="JSON-RPC" style="endArrow=classic;html=1;exitX=0;exitY=0.3333333333333333;exitDx=0;exitDy=0;exitPerimeter=0;entryX=1;entryY=0.5;entryDx=0;entryDy=0;dashed=1;startArrow=classic;startFill=1;" edge="1" parent="lGRME-GvFQ1eXHFbGVmC-1" source="lGRME-GvFQ1eXHFbGVmC-37" target="gx4ZkenyJZu-7thW2DIO-0">
                    <mxGeometry width="50" height="50" relative="1" as="geometry">
                        <mxPoint x="410" y="230" as="sourcePoint"/>
                        <mxPoint x="460" y="180" as="targetPoint"/>
                    </mxGeometry>
                </mxCell>
                <mxCell id="4s8P52Bh_Eo5vHt_DdaS-2" value="" style="rounded=0;html=1;jettySize=auto;orthogonalLoop=1;fontSize=11;endArrow=block;endFill=0;endSize=8;strokeWidth=1;shadow=0;labelBackgroundColor=none;edgeStyle=orthogonalEdgeStyle;exitX=0;exitY=0.5;exitDx=0;exitDy=0;entryX=0.5;entryY=0;entryDx=0;entryDy=0;" edge="1" parent="lGRME-GvFQ1eXHFbGVmC-1" source="gx4ZkenyJZu-7thW2DIO-0" target="lGRME-GvFQ1eXHFbGVmC-35">
                    <mxGeometry x="0.3333" y="20" relative="1" as="geometry">
                        <mxPoint as="offset"/>
                        <mxPoint x="310" y="210" as="targetPoint"/>
                        <mxPoint x="170" y="171" as="sourcePoint"/>
                        <Array as="points">
                            <mxPoint x="210" y="141"/>
                        </Array>
                    </mxGeometry>
                </mxCell>
                <mxCell id="4s8P52Bh_Eo5vHt_DdaS-3" value="" style="endArrow=block;html=1;exitX=1;exitY=0.5;exitDx=0;exitDy=0;entryX=0.5;entryY=1;entryDx=0;entryDy=0;endFill=0;rounded=0;endSize=8;dashed=1;" edge="1" parent="lGRME-GvFQ1eXHFbGVmC-1" source="lGRME-GvFQ1eXHFbGVmC-38" target="gx4ZkenyJZu-7thW2DIO-0">
                    <mxGeometry width="50" height="50" relative="1" as="geometry">
                        <mxPoint x="310" y="291" as="sourcePoint"/>
                        <mxPoint x="310.03999999999996" y="330" as="targetPoint"/>
                        <Array as="points">
                            <mxPoint x="300" y="350"/>
                        </Array>
                    </mxGeometry>
                </mxCell>
                <mxCell id="bYais2zo6bsDC6C3ihf3-4" style="edgeStyle=none;html=1;entryX=0.5;entryY=1;entryDx=0;entryDy=0;dashed=1;startArrow=none;startFill=0;exitX=0.75;exitY=1;exitDx=0;exitDy=0;endArrow=block;endFill=0;endSize=8;" edge="1" parent="lGRME-GvFQ1eXHFbGVmC-1" source="gx4ZkenyJZu-7thW2DIO-0" target="bYais2zo6bsDC6C3ihf3-1">
                    <mxGeometry relative="1" as="geometry">
                        <Array as="points">
                            <mxPoint x="330" y="440"/>
                            <mxPoint x="100" y="440"/>
                        </Array>
                    </mxGeometry>
                </mxCell>
                <mxCell id="bYais2zo6bsDC6C3ihf3-0" value="Latency between request/response is recorded for future analysis" style="shape=callout;whiteSpace=wrap;html=1;perimeter=calloutPerimeter;dashed=1;fillColor=#e3c800;fontColor=#000000;strokeColor=#B09500;opacity=70;direction=west;" vertex="1" parent="lGRME-GvFQ1eXHFbGVmC-1">
                    <mxGeometry x="120" y="440" width="190" height="80" as="geometry"/>
                </mxCell>
                <mxCell id="bYais2zo6bsDC6C3ihf3-1" value="Metrics &amp;amp; Tracing" style="rounded=1;whiteSpace=wrap;html=1;fontSize=12;glass=0;strokeWidth=1;shadow=0;" vertex="1" parent="lGRME-GvFQ1eXHFbGVmC-1">
                    <mxGeometry x="40" y="120" width="120" height="41" as="geometry"/>
                </mxCell>
                <mxCell id="bYais2zo6bsDC6C3ihf3-2" value="" style="rounded=0;html=1;jettySize=auto;orthogonalLoop=1;fontSize=11;endArrow=block;endFill=0;endSize=8;strokeWidth=1;shadow=0;labelBackgroundColor=none;edgeStyle=orthogonalEdgeStyle;entryX=0.5;entryY=0;entryDx=0;entryDy=0;exitX=0.5;exitY=1;exitDx=0;exitDy=0;" edge="1" parent="lGRME-GvFQ1eXHFbGVmC-1" target="bYais2zo6bsDC6C3ihf3-1" source="lGRME-GvFQ1eXHFbGVmC-2">
                    <mxGeometry relative="1" as="geometry">
                        <mxPoint x="140" y="80" as="sourcePoint"/>
                        <mxPoint x="-10" y="131" as="targetPoint"/>
                        <Array as="points">
                            <mxPoint x="199" y="100"/>
                            <mxPoint x="100" y="100"/>
                        </Array>
                    </mxGeometry>
                </mxCell>
            </root>
        </mxGraphModel>
    </diagram>
</mxfile>
